<svg width="123" height="28" viewBox="0 0 123 28" fill="none" xmlns="http://www.w3.org/2000/svg">
<path d="M99.808 3.232C99.648 3.968 99.552 5.504 99.52 6.336C99.488 8.32 99.52 11.264 99.744 13.888C100.288 19.232 101.824 22.784 104.128 22.784C105.76 22.784 107.264 19.488 108.096 16.288L110.112 18.56C108.16 23.968 106.24 25.824 104.064 25.824C101.024 25.824 98.144 22.816 97.248 14.528C96.96 11.776 96.896 7.872 96.896 6.016C96.896 5.28 96.896 3.904 96.704 3.168L99.808 3.232ZM116.448 4.096C119.328 7.808 121.632 14.624 122.112 20.032L119.52 21.056C118.976 15.296 117.024 8.704 113.984 4.96L116.448 4.096Z" fill="#28140B"/>
<path d="M71.552 0.608002C71.392 1.664 71.296 2.784 71.232 3.84C71.104 7.456 70.848 15.04 70.848 19.808C70.848 23.328 73.056 24.544 76.096 24.544C81.952 24.544 85.28 21.28 87.584 17.952L89.376 20.128C87.2 23.168 83.04 27.168 76.032 27.168C71.424 27.168 68.256 25.28 68.256 20.032C68.256 15.296 68.576 7.2 68.576 3.84C68.576 2.656 68.48 1.536 68.288 0.608002H71.552Z" fill="#28140B"/>
<path d="M35.808 3.232C35.648 3.968 35.552 5.504 35.52 6.336C35.488 8.32 35.52 11.264 35.744 13.888C36.288 19.232 37.824 22.784 40.128 22.784C41.76 22.784 43.264 19.488 44.096 16.288L46.112 18.56C44.16 23.968 42.24 25.824 40.064 25.824C37.024 25.824 34.144 22.816 33.248 14.528C32.96 11.776 32.896 7.872 32.896 6.016C32.896 5.28 32.896 3.904 32.704 3.168L35.808 3.232ZM52.448 4.096C55.328 7.808 57.632 14.624 58.112 20.032L55.52 21.056C54.976 15.296 53.024 8.704 49.984 4.96L52.448 4.096Z" fill="#28140B"/>
<path d="M9.792 0C9.696 0.576 9.632 1.44 9.6 2.208C9.504 4.096 9.344 8.992 9.344 12.32C9.344 15.648 9.504 20.64 9.504 22.656C9.504 25.6 8.416 26.56 6.656 26.56C4.16 26.56 0 24.128 0 21.248C0 18.432 3.808 15.456 7.776 13.952C10.624 12.832 13.824 12.256 16.352 12.256C21.056 12.256 24.416 14.784 24.416 18.624C24.416 22.496 21.984 24.96 17.568 25.984C16.16 26.304 14.72 26.368 13.6 26.432L12.704 23.872C13.92 23.872 15.264 23.904 16.48 23.648C19.264 23.104 21.824 21.6 21.824 18.624C21.824 15.904 19.36 14.464 16.352 14.464C13.472 14.464 10.848 15.072 8.128 16.16C4.992 17.376 2.528 19.52 2.528 21.152C2.528 22.592 4.768 23.872 6.016 23.872C6.752 23.872 7.168 23.36 7.168 22.304C7.168 20.448 7.008 16 7.008 12.448C7.008 8.768 7.136 3.552 7.136 2.24C7.136 1.632 7.072 0.511999 6.976 0H9.792ZM19.744 3.552C22.016 4.736 25.504 6.912 27.04 8.192L25.76 10.24C24.192 8.768 20.608 6.56 18.56 5.472L19.744 3.552ZM0.544 5.728C2.304 5.952 3.456 5.984 4.608 5.984C7.776 5.984 12.864 5.312 16.032 4.352L16.096 6.848C12.8 7.648 7.552 8.352 4.672 8.352C2.88 8.352 1.664 8.288 0.608 8.192L0.544 5.728Z" fill="#28140B"/>
</svg>
