<?xml version="1.0" encoding="utf-8"?>
<!-- Generator: Adobe Illustrator 27.9.0, SVG Export Plug-In . SVG Version: 6.00 Build 0)  -->
<svg version="1.1" id="Layer_1" xmlns="http://www.w3.org/2000/svg" xmlns:xlink="http://www.w3.org/1999/xlink" x="0px" y="0px"
	 viewBox="0 0 123 28" style="enable-background:new 0 0 123 28;" xml:space="preserve">
<style type="text/css">
	.st0{fill:#FFFFFF;}
</style>
<path class="st0" d="M99.8,3.2c-0.2,0.7-0.3,2.3-0.3,3.1c0,2,0,4.9,0.2,7.6c0.5,5.3,2.1,8.9,4.4,8.9c1.6,0,3.1-3.3,4-6.5l2,2.3
	c-2,5.4-3.9,7.3-6,7.3c-3,0-5.9-3-6.8-11.3C97,11.8,96.9,7.9,96.9,6c0-0.7,0-2.1-0.2-2.8L99.8,3.2z M116.4,4.1
	c2.9,3.7,5.2,10.5,5.7,15.9l-2.6,1C119,15.3,117,8.7,114,5L116.4,4.1z"/>
<path class="st0" d="M71.6,0.6c-0.2,1.1-0.3,2.2-0.3,3.2c-0.1,3.6-0.4,11.2-0.4,16c0,3.5,2.2,4.7,5.2,4.7c5.9,0,9.2-3.3,11.5-6.6
	l1.8,2.2c-2.2,3-6.3,7-13.3,7c-4.6,0-7.8-1.9-7.8-7.1c0-4.7,0.3-12.8,0.3-16.2c0-1.2-0.1-2.3-0.3-3.2H71.6z"/>
<path class="st0" d="M35.8,3.2c-0.2,0.7-0.3,2.3-0.3,3.1c0,2,0,4.9,0.2,7.6c0.5,5.3,2.1,8.9,4.4,8.9c1.6,0,3.1-3.3,4-6.5l2,2.3
	c-2,5.4-3.9,7.3-6,7.3c-3,0-5.9-3-6.8-11.3C33,11.8,32.9,7.9,32.9,6c0-0.7,0-2.1-0.2-2.8L35.8,3.2z M52.4,4.1
	c2.9,3.7,5.2,10.5,5.7,15.9l-2.6,1C55,15.3,53,8.7,50,5L52.4,4.1z"/>
<path class="st0" d="M9.8,0C9.7,0.6,9.6,1.4,9.6,2.2C9.5,4.1,9.3,9,9.3,12.3s0.2,8.3,0.2,10.3c0,2.9-1.1,3.9-2.8,3.9
	c-2.5,0-6.7-2.4-6.7-5.3c0-2.8,3.8-5.8,7.8-7.3c2.8-1.1,6-1.7,8.6-1.7c4.7,0,8.1,2.5,8.1,6.4c0,3.9-2.4,6.3-6.8,7.4
	c-1.4,0.3-2.8,0.4-4,0.4l-0.9-2.6c1.2,0,2.6,0,3.8-0.2c2.8-0.5,5.3-2,5.3-5c0-2.7-2.5-4.2-5.5-4.2c-2.9,0-5.5,0.6-8.2,1.7
	c-3.1,1.2-5.6,3.4-5.6,5c0,1.4,2.2,2.7,3.5,2.7c0.7,0,1.2-0.5,1.2-1.6C7.2,20.4,7,16,7,12.4C7,8.8,7.1,3.6,7.1,2.2
	C7.1,1.6,7.1,0.5,7,0H9.8z M19.7,3.6C22,4.7,25.5,6.9,27,8.2l-1.3,2c-1.6-1.5-5.2-3.7-7.2-4.8L19.7,3.6z M0.5,5.7C2.3,6,3.5,6,4.6,6
	C7.8,6,12.9,5.3,16,4.4l0.1,2.5C12.8,7.6,7.6,8.4,4.7,8.4c-1.8,0-3-0.1-4.1-0.2L0.5,5.7z"/>
</svg>
